{"title":"Say Yes to the Dress - Full Season 1 (2007)","uid":9697162,"size":963721980,"categoryP":"video","categoryS":"tv_shows","magnet":"?xt=urn:btih:30e664b30134eaadff9ae9bc0325d864fee98848&amp;dn=Say+Yes+to+the+Dress+-+Full+Season+1+%282007%29&amp;tr=udp%3A%2F%2Ftracker.openbittorrent.com%3A80&amp;tr=udp%3A%2F%2Fopen.demonii.com%3A1337&amp;tr=udp%3A%2F%2Ftracker.coppersurfer.tk%3A6969&amp;tr=udp%3A%2F%2Fexodus.desync.com%3A6969","seeders":9,"leechers":0,"uploader":"April22","files":-1,"time":1393951874,"description":"List of episodes:\n1x01 - Here Comes the Bridal Salon\n1x02 - Three Times a Bride\n1x03 - Rocking the Dress\n1x04 - I Do or I Don't\n1x05 - That's Not My Dress\n1x06 - Bridal Breakdown\n1x07 - Lucky In Love\n1x08 - Wedding Dress Blues\n1x09 - To Buy or Not To Buy\n1x10 - What a Girl Wants\n1x11 - Italian Dressing\n1x12 - Here Comes the Groom\n\nFormat                           : MPEG-4\nFormat profile                   : Base Media / Version 2\nCodec ID                         : mp42\nFile size                        : 80.7 MiB\nDuration                         : 21mn 53s\nOverall bit rate                 : 516 Kbps\nEncoded date                     : UTC 2012-04-10 16:29:52\nTagged date                      : UTC 2012-04-10 16:29:52\ngsst                             : 0\ngstd                             : 1314063\ngssd                             : B4A7DD863MH1372585985033393\ngshh                             :\n\nVideo\nID                               : 1\nFormat                           : AVC\nFormat/Info                      : Advanced Video Codec\nFormat profile                   : &lt;a class=&quot;__cf_email__&quot; href=&quot;/cdn-cgi/l/email-protection&quot; data-cfemail=&quot;e3a18290868f8a8d86a3afd0cdd3&quot;&gt;[email&amp;#160;protected]&lt;/a&gt;&lt;script cf-hash='f9e31' type=&quot;text/javascript&quot;&gt;\n/* &lt;![CDATA[ */!function(){try{var t=&quot;currentScript&quot;in document?document.currentScript:function(){for(var t=document.getElementsByTagName(&quot;script&quot;),e=t.length;e--;)if(t[e].getAttribute(&quot;cf-hash&quot;))return t[e]}();if(t&amp;&amp;t.previousSibling){var e,r,n,i,c=t.previousSibling,a=c.getAttribute(&quot;data-cfemail&quot;);if(a){for(e=&quot;&quot;,r=parseInt(a.substr(0,2),16),n=2;a.length-n;n+=2)i=parseInt(a.substr(n,2),16)^r,e+=String.fromCharCode(i);e=document.createTextNode(e),c.parentNode.replaceChild(e,c)}}}catch(u){}}();/* ]]&gt; */&lt;/script&gt;\nFormat settings, CABAC           : No\nFormat settings, ReFrames        : 1 frame\nFormat settings, GOP             : M=1, N=41\nCodec ID                         : avc1\nCodec ID/Info                    : Advanced Video Coding\nDuration                         : 21mn 53s\nBit rate mode                    : Variable\nBit rate                         : 417 Kbps\nMaximum bit rate                 : 1 550 Kbps\nWidth                            : 578 pixels\nHeight                           : 360 pixels\nDisplay aspect ratio             : 1.606\nFrame rate mode                  : Constant\nFrame rate                       : 23.976 fps\nColor space                      : YUV\nChroma subsampling               : 4:2:0\nBit depth                        : 8 bits\nScan type                        : Progressive\nBits/(Pixel*Frame)               : 0.084\nStream size                      : 65.3 MiB (81%)\nTagged date                      : UTC 2012-04-10 16:29:53\n\nAudio\nID                               : 2\nFormat                           : AAC\nFormat/Info                      : Advanced Audio Codec\nFormat profile                   : LC\nCodec ID                         : 40\nDuration                         : 21mn 53s\nBit rate mode                    : Variable\nBit rate                         : 96.0 Kbps\nMaximum bit rate                 : 123 Kbps\nChannel(s)                       : 2 channels\nChannel positions                : Front: L R\nSampling rate                    : 44.1 KHz\nCompression mode                 : Lossy\nStream size                      : 15.0 MiB (19%)\nTitle                            : IsoMedia File Produced by Google, 5-11-2011\nEncoded date                     : UTC 2012-04-10 16:29:53\nTagged date                      : UTC 2012-04-10 16:29:53\n","torrent":{"xt":"urn:btih:30e664b30134eaadff9ae9bc0325d864fee98848","amp;dn":"Say+Yes+to+the+Dress+-+Full+Season+1+%282007%29","amp;tr":["udp%3A%2F%2Ftracker.openbittorrent.com%3A80","udp%3A%2F%2Fopen.demonii.com%3A1337","udp%3A%2F%2Ftracker.coppersurfer.tk%3A6969","udp%3A%2F%2Fexodus.desync.com%3A6969"],"infoHash":"30e664b30134eaadff9ae9bc0325d864fee98848","infoHashBuffer":{"type":"Buffer","data":[48,230,100,179,1,52,234,173,255,154,233,188,3,37,216,100,254,233,136,72]},"announce":[],"urlList":[]}}